<mxfile host="app.diagrams.net" modified="2021-05-25T13:19:28.180Z" agent="5.0 (Windows NT 10.0; Win64; x64) AppleWebKit/537.36 (KHTML, like Gecko) Chrome/90.0.4430.212 Safari/537.36" etag="Q6b9Wp1AZlAOTuMymyqx" version="14.7.1" type="github">
  <diagram id="no_zvn_jt7BNAMizP92p" name="Page-1">
    <mxGraphModel dx="1588" dy="944" grid="1" gridSize="10" guides="1" tooltips="1" connect="1" arrows="1" fold="1" page="1" pageScale="1" pageWidth="827" pageHeight="1169" math="0" shadow="0">
      <root>
        <mxCell id="0" />
        <mxCell id="1" parent="0" />
        <mxCell id="gTRop01zv4GmD_jJxqDv-25" value="" style="edgeStyle=orthogonalEdgeStyle;rounded=0;orthogonalLoop=1;jettySize=auto;html=1;" parent="1" source="gTRop01zv4GmD_jJxqDv-1" target="gTRop01zv4GmD_jJxqDv-9" edge="1">
          <mxGeometry relative="1" as="geometry" />
        </mxCell>
        <mxCell id="gTRop01zv4GmD_jJxqDv-1" value="Select Piece" style="rounded=0;whiteSpace=wrap;html=1;" parent="1" vertex="1">
          <mxGeometry x="150" y="110" width="120" height="60" as="geometry" />
        </mxCell>
        <mxCell id="gTRop01zv4GmD_jJxqDv-3" value="" style="edgeStyle=orthogonalEdgeStyle;rounded=0;orthogonalLoop=1;jettySize=auto;html=1;" parent="1" source="gTRop01zv4GmD_jJxqDv-2" target="gTRop01zv4GmD_jJxqDv-1" edge="1">
          <mxGeometry relative="1" as="geometry" />
        </mxCell>
        <mxCell id="gTRop01zv4GmD_jJxqDv-81" value="" style="edgeStyle=orthogonalEdgeStyle;rounded=0;orthogonalLoop=1;jettySize=auto;html=1;entryX=0;entryY=0.5;entryDx=0;entryDy=0;" parent="1" source="gTRop01zv4GmD_jJxqDv-2" target="gTRop01zv4GmD_jJxqDv-33" edge="1">
          <mxGeometry relative="1" as="geometry">
            <mxPoint x="85" y="200" as="targetPoint" />
            <Array as="points">
              <mxPoint x="90" y="680" />
            </Array>
          </mxGeometry>
        </mxCell>
        <mxCell id="gTRop01zv4GmD_jJxqDv-2" value="Begin&lt;br&gt;Position" style="text;html=1;strokeColor=none;fillColor=none;align=center;verticalAlign=middle;whiteSpace=wrap;rounded=0;" parent="1" vertex="1">
          <mxGeometry x="60" y="60" width="50" height="40" as="geometry" />
        </mxCell>
        <mxCell id="gTRop01zv4GmD_jJxqDv-6" value="" style="edgeStyle=orthogonalEdgeStyle;rounded=0;orthogonalLoop=1;jettySize=auto;html=1;entryX=0.85;entryY=-0.037;entryDx=0;entryDy=0;entryPerimeter=0;" parent="1" source="gTRop01zv4GmD_jJxqDv-4" target="gTRop01zv4GmD_jJxqDv-1" edge="1">
          <mxGeometry relative="1" as="geometry">
            <mxPoint x="330" y="100" as="targetPoint" />
          </mxGeometry>
        </mxCell>
        <mxCell id="gTRop01zv4GmD_jJxqDv-4" value="Piece Selected" style="text;html=1;strokeColor=none;fillColor=none;align=center;verticalAlign=middle;whiteSpace=wrap;rounded=0;" parent="1" vertex="1">
          <mxGeometry x="340" y="70" width="40" height="20" as="geometry" />
        </mxCell>
        <mxCell id="gTRop01zv4GmD_jJxqDv-26" value="" style="edgeStyle=orthogonalEdgeStyle;rounded=0;orthogonalLoop=1;jettySize=auto;html=1;" parent="1" source="gTRop01zv4GmD_jJxqDv-9" target="gTRop01zv4GmD_jJxqDv-16" edge="1">
          <mxGeometry relative="1" as="geometry" />
        </mxCell>
        <mxCell id="gTRop01zv4GmD_jJxqDv-9" value="Allowable Moves" style="text;html=1;strokeColor=none;fillColor=none;align=center;verticalAlign=middle;whiteSpace=wrap;rounded=0;" parent="1" vertex="1">
          <mxGeometry x="180" y="200" width="60" height="50" as="geometry" />
        </mxCell>
        <mxCell id="gTRop01zv4GmD_jJxqDv-77" value="" style="edgeStyle=orthogonalEdgeStyle;rounded=0;orthogonalLoop=1;jettySize=auto;html=1;" parent="1" source="gTRop01zv4GmD_jJxqDv-16" target="gTRop01zv4GmD_jJxqDv-31" edge="1">
          <mxGeometry relative="1" as="geometry" />
        </mxCell>
        <mxCell id="gTRop01zv4GmD_jJxqDv-16" value="Allowable&lt;br&gt;Trajectories" style="rounded=0;whiteSpace=wrap;html=1;" parent="1" vertex="1">
          <mxGeometry x="150" y="300" width="120" height="60" as="geometry" />
        </mxCell>
        <mxCell id="gTRop01zv4GmD_jJxqDv-48" value="" style="edgeStyle=orthogonalEdgeStyle;rounded=0;orthogonalLoop=1;jettySize=auto;html=1;entryX=0;entryY=0.5;entryDx=0;entryDy=0;" parent="1" source="gTRop01zv4GmD_jJxqDv-20" target="gTRop01zv4GmD_jJxqDv-55" edge="1">
          <mxGeometry relative="1" as="geometry">
            <mxPoint x="760" y="473" as="targetPoint" />
          </mxGeometry>
        </mxCell>
        <mxCell id="gTRop01zv4GmD_jJxqDv-20" value="J^T" style="rounded=0;whiteSpace=wrap;html=1;" parent="1" vertex="1">
          <mxGeometry x="540" y="443" width="120" height="60" as="geometry" />
        </mxCell>
        <mxCell id="gTRop01zv4GmD_jJxqDv-45" value="" style="edgeStyle=orthogonalEdgeStyle;rounded=0;orthogonalLoop=1;jettySize=auto;html=1;" parent="1" source="gTRop01zv4GmD_jJxqDv-22" target="gTRop01zv4GmD_jJxqDv-20" edge="1">
          <mxGeometry relative="1" as="geometry" />
        </mxCell>
        <mxCell id="gTRop01zv4GmD_jJxqDv-22" value="Trajectory Mode" style="rounded=0;whiteSpace=wrap;html=1;" parent="1" vertex="1">
          <mxGeometry x="300" y="423" width="110" height="100" as="geometry" />
        </mxCell>
        <mxCell id="gTRop01zv4GmD_jJxqDv-78" value="" style="edgeStyle=orthogonalEdgeStyle;rounded=0;orthogonalLoop=1;jettySize=auto;html=1;entryX=0.5;entryY=0;entryDx=0;entryDy=0;" parent="1" source="gTRop01zv4GmD_jJxqDv-31" target="gTRop01zv4GmD_jJxqDv-22" edge="1">
          <mxGeometry relative="1" as="geometry">
            <mxPoint x="350" y="410" as="targetPoint" />
          </mxGeometry>
        </mxCell>
        <mxCell id="gTRop01zv4GmD_jJxqDv-31" value="allowed&lt;br&gt;x_dot_hat" style="text;html=1;strokeColor=none;fillColor=none;align=center;verticalAlign=middle;whiteSpace=wrap;rounded=0;" parent="1" vertex="1">
          <mxGeometry x="325" y="300" width="60" height="60" as="geometry" />
        </mxCell>
        <mxCell id="gTRop01zv4GmD_jJxqDv-79" value="" style="edgeStyle=orthogonalEdgeStyle;rounded=0;orthogonalLoop=1;jettySize=auto;html=1;entryX=0.25;entryY=1;entryDx=0;entryDy=0;" parent="1" source="gTRop01zv4GmD_jJxqDv-33" edge="1">
          <mxGeometry relative="1" as="geometry">
            <mxPoint x="210" y="360.5" as="targetPoint" />
            <Array as="points">
              <mxPoint x="210" y="470.5" />
              <mxPoint x="210" y="470.5" />
            </Array>
          </mxGeometry>
        </mxCell>
        <mxCell id="gTRop01zv4GmD_jJxqDv-33" value="Trajectory Chosen" style="rounded=0;whiteSpace=wrap;html=1;" parent="1" vertex="1">
          <mxGeometry x="160" y="650.5" width="120" height="60" as="geometry" />
        </mxCell>
        <mxCell id="gTRop01zv4GmD_jJxqDv-83" value="" style="edgeStyle=orthogonalEdgeStyle;rounded=0;orthogonalLoop=1;jettySize=auto;html=1;" parent="1" source="gTRop01zv4GmD_jJxqDv-34" target="gTRop01zv4GmD_jJxqDv-33" edge="1">
          <mxGeometry relative="1" as="geometry" />
        </mxCell>
        <mxCell id="gTRop01zv4GmD_jJxqDv-34" value="Motor Movement" style="text;html=1;strokeColor=none;fillColor=none;align=center;verticalAlign=middle;whiteSpace=wrap;rounded=0;" parent="1" vertex="1">
          <mxGeometry x="185" y="790" width="70" height="55" as="geometry" />
        </mxCell>
        <mxCell id="VHoZAzU2RzgKH1muCBWd-2" value="" style="edgeStyle=orthogonalEdgeStyle;rounded=0;orthogonalLoop=1;jettySize=auto;html=1;entryX=0.5;entryY=1;entryDx=0;entryDy=0;" parent="1" source="gTRop01zv4GmD_jJxqDv-42" target="gTRop01zv4GmD_jJxqDv-22" edge="1">
          <mxGeometry relative="1" as="geometry">
            <mxPoint x="335" y="673" as="targetPoint" />
          </mxGeometry>
        </mxCell>
        <mxCell id="gTRop01zv4GmD_jJxqDv-42" value="Current&lt;br&gt;Position in Traj Mode" style="text;html=1;strokeColor=none;fillColor=none;align=center;verticalAlign=middle;whiteSpace=wrap;rounded=0;" parent="1" vertex="1">
          <mxGeometry x="450" y="703" width="70" height="60" as="geometry" />
        </mxCell>
        <mxCell id="gTRop01zv4GmD_jJxqDv-46" value="x_dot_hat &lt;br&gt;REF" style="text;html=1;strokeColor=none;fillColor=none;align=center;verticalAlign=middle;whiteSpace=wrap;rounded=0;" parent="1" vertex="1">
          <mxGeometry x="450" y="423" width="56" height="40" as="geometry" />
        </mxCell>
        <mxCell id="gTRop01zv4GmD_jJxqDv-50" value="" style="edgeStyle=orthogonalEdgeStyle;rounded=0;orthogonalLoop=1;jettySize=auto;html=1;entryX=0.5;entryY=1;entryDx=0;entryDy=0;" parent="1" source="gTRop01zv4GmD_jJxqDv-49" target="gTRop01zv4GmD_jJxqDv-55" edge="1">
          <mxGeometry relative="1" as="geometry">
            <mxPoint x="790" y="473" as="targetPoint" />
          </mxGeometry>
        </mxCell>
        <mxCell id="gTRop01zv4GmD_jJxqDv-49" value="Q_dot&amp;nbsp;&lt;br&gt;motor" style="text;html=1;strokeColor=none;fillColor=none;align=center;verticalAlign=middle;whiteSpace=wrap;rounded=0;" parent="1" vertex="1">
          <mxGeometry x="761.25" y="523" width="52.5" height="40" as="geometry" />
        </mxCell>
        <mxCell id="gTRop01zv4GmD_jJxqDv-51" value="Q_dot_ref" style="text;html=1;strokeColor=none;fillColor=none;align=center;verticalAlign=middle;whiteSpace=wrap;rounded=0;" parent="1" vertex="1">
          <mxGeometry x="665" y="438" width="75" height="20" as="geometry" />
        </mxCell>
        <mxCell id="gTRop01zv4GmD_jJxqDv-57" value="" style="edgeStyle=orthogonalEdgeStyle;rounded=0;orthogonalLoop=1;jettySize=auto;html=1;" parent="1" source="gTRop01zv4GmD_jJxqDv-55" target="gTRop01zv4GmD_jJxqDv-56" edge="1">
          <mxGeometry relative="1" as="geometry" />
        </mxCell>
        <mxCell id="gTRop01zv4GmD_jJxqDv-55" value="&lt;span&gt;+sum-&lt;/span&gt;" style="ellipse;whiteSpace=wrap;html=1;aspect=fixed;" parent="1" vertex="1">
          <mxGeometry x="765" y="450.5" width="45" height="45" as="geometry" />
        </mxCell>
        <mxCell id="gTRop01zv4GmD_jJxqDv-59" value="" style="edgeStyle=orthogonalEdgeStyle;rounded=0;orthogonalLoop=1;jettySize=auto;html=1;" parent="1" source="gTRop01zv4GmD_jJxqDv-56" target="gTRop01zv4GmD_jJxqDv-58" edge="1">
          <mxGeometry relative="1" as="geometry" />
        </mxCell>
        <mxCell id="gTRop01zv4GmD_jJxqDv-56" value="Angular&lt;br&gt;PI Control" style="rounded=0;whiteSpace=wrap;html=1;" parent="1" vertex="1">
          <mxGeometry x="940" y="423" width="140" height="103" as="geometry" />
        </mxCell>
        <mxCell id="gTRop01zv4GmD_jJxqDv-61" value="" style="edgeStyle=orthogonalEdgeStyle;rounded=0;orthogonalLoop=1;jettySize=auto;html=1;" parent="1" source="gTRop01zv4GmD_jJxqDv-58" target="gTRop01zv4GmD_jJxqDv-60" edge="1">
          <mxGeometry relative="1" as="geometry" />
        </mxCell>
        <mxCell id="gTRop01zv4GmD_jJxqDv-58" value="MOTORS" style="shape=process;whiteSpace=wrap;html=1;backgroundOutline=1;" parent="1" vertex="1">
          <mxGeometry x="1150" y="443" width="120" height="60" as="geometry" />
        </mxCell>
        <mxCell id="gTRop01zv4GmD_jJxqDv-63" value="" style="edgeStyle=orthogonalEdgeStyle;rounded=0;orthogonalLoop=1;jettySize=auto;html=1;" parent="1" source="gTRop01zv4GmD_jJxqDv-60" target="gTRop01zv4GmD_jJxqDv-62" edge="1">
          <mxGeometry relative="1" as="geometry" />
        </mxCell>
        <mxCell id="gTRop01zv4GmD_jJxqDv-69" value="" style="edgeStyle=orthogonalEdgeStyle;rounded=0;orthogonalLoop=1;jettySize=auto;html=1;" parent="1" source="gTRop01zv4GmD_jJxqDv-60" target="gTRop01zv4GmD_jJxqDv-68" edge="1">
          <mxGeometry relative="1" as="geometry">
            <Array as="points">
              <mxPoint x="1060" y="623" />
              <mxPoint x="1060" y="743" />
            </Array>
          </mxGeometry>
        </mxCell>
        <mxCell id="gTRop01zv4GmD_jJxqDv-60" value="FILTER?" style="whiteSpace=wrap;html=1;" parent="1" vertex="1">
          <mxGeometry x="1150" y="593" width="120" height="60" as="geometry" />
        </mxCell>
        <mxCell id="gTRop01zv4GmD_jJxqDv-64" value="" style="edgeStyle=orthogonalEdgeStyle;rounded=0;orthogonalLoop=1;jettySize=auto;html=1;entryX=0.5;entryY=1;entryDx=0;entryDy=0;" parent="1" source="gTRop01zv4GmD_jJxqDv-62" target="gTRop01zv4GmD_jJxqDv-49" edge="1">
          <mxGeometry relative="1" as="geometry">
            <mxPoint x="788" y="583" as="targetPoint" />
            <Array as="points">
              <mxPoint x="787" y="613" />
            </Array>
          </mxGeometry>
        </mxCell>
        <mxCell id="gTRop01zv4GmD_jJxqDv-85" value="" style="edgeStyle=orthogonalEdgeStyle;rounded=0;orthogonalLoop=1;jettySize=auto;html=1;entryX=1;entryY=0.5;entryDx=0;entryDy=0;" parent="1" source="gTRop01zv4GmD_jJxqDv-62" target="gTRop01zv4GmD_jJxqDv-34" edge="1">
          <mxGeometry relative="1" as="geometry">
            <mxPoint x="940" y="730" as="targetPoint" />
            <Array as="points">
              <mxPoint x="930" y="818" />
            </Array>
          </mxGeometry>
        </mxCell>
        <mxCell id="gTRop01zv4GmD_jJxqDv-62" value="d/dt" style="whiteSpace=wrap;html=1;" parent="1" vertex="1">
          <mxGeometry x="870" y="593" width="120" height="60" as="geometry" />
        </mxCell>
        <mxCell id="gTRop01zv4GmD_jJxqDv-65" value="Q&lt;br&gt;Motor Angle&lt;br&gt;(noisy?)" style="text;html=1;strokeColor=none;fillColor=none;align=center;verticalAlign=middle;whiteSpace=wrap;rounded=0;" parent="1" vertex="1">
          <mxGeometry x="1220" y="513" width="70" height="60" as="geometry" />
        </mxCell>
        <mxCell id="gTRop01zv4GmD_jJxqDv-66" value="Q&lt;br&gt;Motor Angle" style="text;html=1;strokeColor=none;fillColor=none;align=center;verticalAlign=middle;whiteSpace=wrap;rounded=0;" parent="1" vertex="1">
          <mxGeometry x="1050" y="573" width="40" height="50" as="geometry" />
        </mxCell>
        <mxCell id="gTRop01zv4GmD_jJxqDv-67" value="Q&lt;br&gt;Motor Angle" style="text;html=1;strokeColor=none;fillColor=none;align=center;verticalAlign=middle;whiteSpace=wrap;rounded=0;" parent="1" vertex="1">
          <mxGeometry x="1030" y="753" width="40" height="50" as="geometry" />
        </mxCell>
        <mxCell id="gTRop01zv4GmD_jJxqDv-71" value="" style="edgeStyle=orthogonalEdgeStyle;rounded=0;orthogonalLoop=1;jettySize=auto;html=1;entryX=1;entryY=0.5;entryDx=0;entryDy=0;" parent="1" source="gTRop01zv4GmD_jJxqDv-68" target="gTRop01zv4GmD_jJxqDv-42" edge="1">
          <mxGeometry relative="1" as="geometry">
            <mxPoint x="490" y="673" as="targetPoint" />
            <Array as="points">
              <mxPoint x="520" y="733" />
            </Array>
          </mxGeometry>
        </mxCell>
        <mxCell id="gTRop01zv4GmD_jJxqDv-68" value="Forward Kinematics" style="whiteSpace=wrap;html=1;" parent="1" vertex="1">
          <mxGeometry x="720" y="710.5" width="120" height="60" as="geometry" />
        </mxCell>
        <mxCell id="gTRop01zv4GmD_jJxqDv-86" value="X_motor" style="text;html=1;strokeColor=none;fillColor=none;align=center;verticalAlign=middle;whiteSpace=wrap;rounded=0;" parent="1" vertex="1">
          <mxGeometry x="540" y="693" width="80" height="50" as="geometry" />
        </mxCell>
        <mxCell id="gTRop01zv4GmD_jJxqDv-88" value="Error Q_dot" style="text;html=1;strokeColor=none;fillColor=none;align=center;verticalAlign=middle;whiteSpace=wrap;rounded=0;" parent="1" vertex="1">
          <mxGeometry x="827" y="433" width="75" height="20" as="geometry" />
        </mxCell>
        <mxCell id="gTRop01zv4GmD_jJxqDv-91" value="Trajectory Mode (Valid for Bishop &amp; Rook Only)" style="swimlane;fontStyle=1;align=center;verticalAlign=top;childLayout=stackLayout;horizontal=1;startSize=26;horizontalStack=0;resizeParent=1;resizeParentMax=0;resizeLast=0;collapsible=1;marginBottom=0;" parent="1" vertex="1">
          <mxGeometry x="520" y="70" width="370" height="230" as="geometry" />
        </mxCell>
        <mxCell id="gTRop01zv4GmD_jJxqDv-92" value="- Beginning Position&#xa;- allowed x_hat (away and to beginning position)&#xa;&#xa;- Traj mode ON/OFF&#xa;- curr x_hat (trajectory Chosen)&#xa;&#xa;- BOUNDARY CHECKING&#xa;&#xa;" style="text;strokeColor=none;fillColor=none;align=left;verticalAlign=top;spacingLeft=4;spacingRight=4;overflow=hidden;rotatable=0;points=[[0,0.5],[1,0.5]];portConstraint=eastwest;" parent="gTRop01zv4GmD_jJxqDv-91" vertex="1">
          <mxGeometry y="26" width="370" height="114" as="geometry" />
        </mxCell>
        <mxCell id="gTRop01zv4GmD_jJxqDv-93" value="" style="line;strokeWidth=1;fillColor=none;align=left;verticalAlign=middle;spacingTop=-1;spacingLeft=3;spacingRight=3;rotatable=0;labelPosition=right;points=[];portConstraint=eastwest;" parent="gTRop01zv4GmD_jJxqDv-91" vertex="1">
          <mxGeometry y="140" width="370" height="8" as="geometry" />
        </mxCell>
        <mxCell id="gTRop01zv4GmD_jJxqDv-94" value="- Check Bounds&#xa;- Compare applied Motor Trajectory &#xa;to Allowable trajectory" style="text;strokeColor=none;fillColor=none;align=left;verticalAlign=top;spacingLeft=4;spacingRight=4;overflow=hidden;rotatable=0;points=[[0,0.5],[1,0.5]];portConstraint=eastwest;" parent="gTRop01zv4GmD_jJxqDv-91" vertex="1">
          <mxGeometry y="148" width="370" height="82" as="geometry" />
        </mxCell>
        <mxCell id="VHoZAzU2RzgKH1muCBWd-4" value="" style="edgeStyle=orthogonalEdgeStyle;rounded=0;orthogonalLoop=1;jettySize=auto;html=1;" parent="1" source="VHoZAzU2RzgKH1muCBWd-5" target="VHoZAzU2RzgKH1muCBWd-12" edge="1">
          <mxGeometry relative="1" as="geometry" />
        </mxCell>
        <mxCell id="VHoZAzU2RzgKH1muCBWd-5" value="Select Piece" style="rounded=0;whiteSpace=wrap;html=1;" parent="1" vertex="1">
          <mxGeometry x="120" y="1040" width="120" height="60" as="geometry" />
        </mxCell>
        <mxCell id="VHoZAzU2RzgKH1muCBWd-6" value="" style="edgeStyle=orthogonalEdgeStyle;rounded=0;orthogonalLoop=1;jettySize=auto;html=1;" parent="1" source="VHoZAzU2RzgKH1muCBWd-8" target="VHoZAzU2RzgKH1muCBWd-5" edge="1">
          <mxGeometry relative="1" as="geometry" />
        </mxCell>
        <mxCell id="VHoZAzU2RzgKH1muCBWd-7" value="" style="edgeStyle=orthogonalEdgeStyle;rounded=0;orthogonalLoop=1;jettySize=auto;html=1;entryX=0;entryY=0.5;entryDx=0;entryDy=0;" parent="1" source="VHoZAzU2RzgKH1muCBWd-8" target="VHoZAzU2RzgKH1muCBWd-22" edge="1">
          <mxGeometry relative="1" as="geometry">
            <mxPoint x="55" y="1130" as="targetPoint" />
            <Array as="points">
              <mxPoint x="60" y="1570" />
            </Array>
          </mxGeometry>
        </mxCell>
        <mxCell id="VHoZAzU2RzgKH1muCBWd-8" value="Begin&lt;br&gt;Position" style="text;html=1;strokeColor=none;fillColor=none;align=center;verticalAlign=middle;whiteSpace=wrap;rounded=0;" parent="1" vertex="1">
          <mxGeometry x="30" y="990" width="50" height="40" as="geometry" />
        </mxCell>
        <mxCell id="VHoZAzU2RzgKH1muCBWd-9" value="" style="edgeStyle=orthogonalEdgeStyle;rounded=0;orthogonalLoop=1;jettySize=auto;html=1;entryX=0.85;entryY=-0.037;entryDx=0;entryDy=0;entryPerimeter=0;" parent="1" source="VHoZAzU2RzgKH1muCBWd-10" target="VHoZAzU2RzgKH1muCBWd-5" edge="1">
          <mxGeometry relative="1" as="geometry">
            <mxPoint x="300" y="1030" as="targetPoint" />
          </mxGeometry>
        </mxCell>
        <mxCell id="VHoZAzU2RzgKH1muCBWd-10" value="Piece Selected" style="text;html=1;strokeColor=none;fillColor=none;align=center;verticalAlign=middle;whiteSpace=wrap;rounded=0;" parent="1" vertex="1">
          <mxGeometry x="310" y="1000" width="40" height="20" as="geometry" />
        </mxCell>
        <mxCell id="VHoZAzU2RzgKH1muCBWd-11" value="" style="edgeStyle=orthogonalEdgeStyle;rounded=0;orthogonalLoop=1;jettySize=auto;html=1;" parent="1" source="VHoZAzU2RzgKH1muCBWd-12" target="VHoZAzU2RzgKH1muCBWd-14" edge="1">
          <mxGeometry relative="1" as="geometry" />
        </mxCell>
        <mxCell id="VHoZAzU2RzgKH1muCBWd-12" value="Allowable Moves" style="text;html=1;strokeColor=none;fillColor=none;align=center;verticalAlign=middle;whiteSpace=wrap;rounded=0;" parent="1" vertex="1">
          <mxGeometry x="150" y="1130" width="60" height="50" as="geometry" />
        </mxCell>
        <mxCell id="VHoZAzU2RzgKH1muCBWd-13" value="" style="edgeStyle=orthogonalEdgeStyle;rounded=0;orthogonalLoop=1;jettySize=auto;html=1;" parent="1" source="VHoZAzU2RzgKH1muCBWd-14" target="VHoZAzU2RzgKH1muCBWd-20" edge="1">
          <mxGeometry relative="1" as="geometry" />
        </mxCell>
        <mxCell id="VHoZAzU2RzgKH1muCBWd-14" value="Allowable&lt;br&gt;Trajectories" style="rounded=0;whiteSpace=wrap;html=1;" parent="1" vertex="1">
          <mxGeometry x="120" y="1230" width="120" height="60" as="geometry" />
        </mxCell>
        <mxCell id="VHoZAzU2RzgKH1muCBWd-15" value="" style="edgeStyle=orthogonalEdgeStyle;rounded=0;orthogonalLoop=1;jettySize=auto;html=1;entryX=0;entryY=0.5;entryDx=0;entryDy=0;" parent="1" source="VHoZAzU2RzgKH1muCBWd-16" target="VHoZAzU2RzgKH1muCBWd-32" edge="1">
          <mxGeometry relative="1" as="geometry">
            <mxPoint x="730" y="1403" as="targetPoint" />
          </mxGeometry>
        </mxCell>
        <mxCell id="VHoZAzU2RzgKH1muCBWd-16" value="J^T" style="rounded=0;whiteSpace=wrap;html=1;" parent="1" vertex="1">
          <mxGeometry x="510" y="1373" width="120" height="60" as="geometry" />
        </mxCell>
        <mxCell id="VHoZAzU2RzgKH1muCBWd-17" value="" style="edgeStyle=orthogonalEdgeStyle;rounded=0;orthogonalLoop=1;jettySize=auto;html=1;" parent="1" source="VHoZAzU2RzgKH1muCBWd-18" target="VHoZAzU2RzgKH1muCBWd-16" edge="1">
          <mxGeometry relative="1" as="geometry" />
        </mxCell>
        <mxCell id="VHoZAzU2RzgKH1muCBWd-18" value="Trajectory Mode" style="rounded=0;whiteSpace=wrap;html=1;" parent="1" vertex="1">
          <mxGeometry x="270" y="1353" width="110" height="100" as="geometry" />
        </mxCell>
        <mxCell id="VHoZAzU2RzgKH1muCBWd-19" value="" style="edgeStyle=orthogonalEdgeStyle;rounded=0;orthogonalLoop=1;jettySize=auto;html=1;entryX=0.5;entryY=0;entryDx=0;entryDy=0;" parent="1" source="VHoZAzU2RzgKH1muCBWd-20" target="VHoZAzU2RzgKH1muCBWd-18" edge="1">
          <mxGeometry relative="1" as="geometry">
            <mxPoint x="320" y="1340" as="targetPoint" />
          </mxGeometry>
        </mxCell>
        <mxCell id="VHoZAzU2RzgKH1muCBWd-20" value="allowed&lt;br&gt;x_dot_hat" style="text;html=1;strokeColor=none;fillColor=none;align=center;verticalAlign=middle;whiteSpace=wrap;rounded=0;" parent="1" vertex="1">
          <mxGeometry x="295" y="1230" width="60" height="60" as="geometry" />
        </mxCell>
        <mxCell id="VHoZAzU2RzgKH1muCBWd-21" value="" style="edgeStyle=orthogonalEdgeStyle;rounded=0;orthogonalLoop=1;jettySize=auto;html=1;exitX=0;exitY=0.5;exitDx=0;exitDy=0;" parent="1" source="VHoZAzU2RzgKH1muCBWd-18" edge="1">
          <mxGeometry relative="1" as="geometry">
            <mxPoint x="210" y="1291" as="targetPoint" />
            <Array as="points">
              <mxPoint x="210" y="1403" />
            </Array>
          </mxGeometry>
        </mxCell>
        <mxCell id="VHoZAzU2RzgKH1muCBWd-59" value="" style="edgeStyle=orthogonalEdgeStyle;rounded=0;orthogonalLoop=1;jettySize=auto;html=1;entryX=0.25;entryY=1;entryDx=0;entryDy=0;" parent="1" source="VHoZAzU2RzgKH1muCBWd-22" target="VHoZAzU2RzgKH1muCBWd-18" edge="1">
          <mxGeometry relative="1" as="geometry">
            <mxPoint x="390" y="1610.5" as="targetPoint" />
          </mxGeometry>
        </mxCell>
        <mxCell id="VHoZAzU2RzgKH1muCBWd-61" value="" style="edgeStyle=orthogonalEdgeStyle;rounded=0;orthogonalLoop=1;jettySize=auto;html=1;entryX=0.25;entryY=1;entryDx=0;entryDy=0;" parent="1" source="VHoZAzU2RzgKH1muCBWd-22" target="VHoZAzU2RzgKH1muCBWd-14" edge="1">
          <mxGeometry relative="1" as="geometry">
            <mxPoint x="180" y="1420" as="targetPoint" />
            <Array as="points">
              <mxPoint x="170" y="1290" />
            </Array>
          </mxGeometry>
        </mxCell>
        <mxCell id="VHoZAzU2RzgKH1muCBWd-22" value="Applied on Motor" style="rounded=0;whiteSpace=wrap;html=1;" parent="1" vertex="1">
          <mxGeometry x="135" y="1540" width="120" height="60" as="geometry" />
        </mxCell>
        <mxCell id="VHoZAzU2RzgKH1muCBWd-23" value="" style="edgeStyle=orthogonalEdgeStyle;rounded=0;orthogonalLoop=1;jettySize=auto;html=1;" parent="1" source="VHoZAzU2RzgKH1muCBWd-24" target="VHoZAzU2RzgKH1muCBWd-22" edge="1">
          <mxGeometry relative="1" as="geometry">
            <Array as="points">
              <mxPoint x="190" y="1660" />
              <mxPoint x="195" y="1660" />
            </Array>
          </mxGeometry>
        </mxCell>
        <mxCell id="VHoZAzU2RzgKH1muCBWd-24" value="Motor Movement" style="text;html=1;strokeColor=none;fillColor=none;align=center;verticalAlign=middle;whiteSpace=wrap;rounded=0;" parent="1" vertex="1">
          <mxGeometry x="155" y="1720" width="70" height="55" as="geometry" />
        </mxCell>
        <mxCell id="VHoZAzU2RzgKH1muCBWd-25" value="" style="edgeStyle=orthogonalEdgeStyle;rounded=0;orthogonalLoop=1;jettySize=auto;html=1;entryX=0.75;entryY=1;entryDx=0;entryDy=0;" parent="1" source="VHoZAzU2RzgKH1muCBWd-26" target="VHoZAzU2RzgKH1muCBWd-18" edge="1">
          <mxGeometry relative="1" as="geometry">
            <mxPoint x="305" y="1603" as="targetPoint" />
            <Array as="points">
              <mxPoint x="490" y="1670" />
              <mxPoint x="490" y="1540" />
              <mxPoint x="353" y="1540" />
            </Array>
          </mxGeometry>
        </mxCell>
        <mxCell id="VHoZAzU2RzgKH1muCBWd-57" value="" style="edgeStyle=orthogonalEdgeStyle;rounded=0;orthogonalLoop=1;jettySize=auto;html=1;entryX=1;entryY=0.75;entryDx=0;entryDy=0;" parent="1" source="VHoZAzU2RzgKH1muCBWd-26" target="VHoZAzU2RzgKH1muCBWd-54" edge="1">
          <mxGeometry relative="1" as="geometry">
            <mxPoint x="615" y="1810" as="targetPoint" />
            <Array as="points">
              <mxPoint x="570" y="1763" />
            </Array>
          </mxGeometry>
        </mxCell>
        <mxCell id="VHoZAzU2RzgKH1muCBWd-26" value="Current&lt;br&gt;Position in Traj Mode" style="text;html=1;strokeColor=none;fillColor=none;align=center;verticalAlign=middle;whiteSpace=wrap;rounded=0;" parent="1" vertex="1">
          <mxGeometry x="535" y="1633" width="70" height="60" as="geometry" />
        </mxCell>
        <mxCell id="VHoZAzU2RzgKH1muCBWd-27" value="x_dot_hat &lt;br&gt;REF" style="text;html=1;strokeColor=none;fillColor=none;align=center;verticalAlign=middle;whiteSpace=wrap;rounded=0;" parent="1" vertex="1">
          <mxGeometry x="420" y="1353" width="56" height="40" as="geometry" />
        </mxCell>
        <mxCell id="VHoZAzU2RzgKH1muCBWd-28" value="" style="edgeStyle=orthogonalEdgeStyle;rounded=0;orthogonalLoop=1;jettySize=auto;html=1;entryX=0.5;entryY=1;entryDx=0;entryDy=0;" parent="1" source="VHoZAzU2RzgKH1muCBWd-29" target="VHoZAzU2RzgKH1muCBWd-32" edge="1">
          <mxGeometry relative="1" as="geometry">
            <mxPoint x="760" y="1403" as="targetPoint" />
          </mxGeometry>
        </mxCell>
        <mxCell id="VHoZAzU2RzgKH1muCBWd-29" value="Q_dot&amp;nbsp;&lt;br&gt;motor" style="text;html=1;strokeColor=none;fillColor=none;align=center;verticalAlign=middle;whiteSpace=wrap;rounded=0;" parent="1" vertex="1">
          <mxGeometry x="731.25" y="1453" width="52.5" height="40" as="geometry" />
        </mxCell>
        <mxCell id="VHoZAzU2RzgKH1muCBWd-30" value="Q_dot_ref" style="text;html=1;strokeColor=none;fillColor=none;align=center;verticalAlign=middle;whiteSpace=wrap;rounded=0;" parent="1" vertex="1">
          <mxGeometry x="635" y="1368" width="75" height="20" as="geometry" />
        </mxCell>
        <mxCell id="VHoZAzU2RzgKH1muCBWd-31" value="" style="edgeStyle=orthogonalEdgeStyle;rounded=0;orthogonalLoop=1;jettySize=auto;html=1;" parent="1" source="VHoZAzU2RzgKH1muCBWd-32" target="VHoZAzU2RzgKH1muCBWd-34" edge="1">
          <mxGeometry relative="1" as="geometry" />
        </mxCell>
        <mxCell id="VHoZAzU2RzgKH1muCBWd-32" value="&lt;span&gt;+sum-&lt;/span&gt;" style="ellipse;whiteSpace=wrap;html=1;aspect=fixed;" parent="1" vertex="1">
          <mxGeometry x="735" y="1380.5" width="45" height="45" as="geometry" />
        </mxCell>
        <mxCell id="VHoZAzU2RzgKH1muCBWd-33" value="" style="edgeStyle=orthogonalEdgeStyle;rounded=0;orthogonalLoop=1;jettySize=auto;html=1;" parent="1" source="VHoZAzU2RzgKH1muCBWd-34" target="VHoZAzU2RzgKH1muCBWd-36" edge="1">
          <mxGeometry relative="1" as="geometry" />
        </mxCell>
        <mxCell id="VHoZAzU2RzgKH1muCBWd-34" value="Angular&lt;br&gt;PI Control" style="rounded=0;whiteSpace=wrap;html=1;" parent="1" vertex="1">
          <mxGeometry x="910" y="1353" width="140" height="103" as="geometry" />
        </mxCell>
        <mxCell id="VHoZAzU2RzgKH1muCBWd-35" value="" style="edgeStyle=orthogonalEdgeStyle;rounded=0;orthogonalLoop=1;jettySize=auto;html=1;" parent="1" source="VHoZAzU2RzgKH1muCBWd-36" target="VHoZAzU2RzgKH1muCBWd-39" edge="1">
          <mxGeometry relative="1" as="geometry" />
        </mxCell>
        <mxCell id="VHoZAzU2RzgKH1muCBWd-36" value="MOTORS" style="shape=process;whiteSpace=wrap;html=1;backgroundOutline=1;" parent="1" vertex="1">
          <mxGeometry x="1120" y="1373" width="120" height="60" as="geometry" />
        </mxCell>
        <mxCell id="VHoZAzU2RzgKH1muCBWd-37" value="" style="edgeStyle=orthogonalEdgeStyle;rounded=0;orthogonalLoop=1;jettySize=auto;html=1;" parent="1" source="VHoZAzU2RzgKH1muCBWd-39" target="VHoZAzU2RzgKH1muCBWd-42" edge="1">
          <mxGeometry relative="1" as="geometry" />
        </mxCell>
        <mxCell id="VHoZAzU2RzgKH1muCBWd-38" value="" style="edgeStyle=orthogonalEdgeStyle;rounded=0;orthogonalLoop=1;jettySize=auto;html=1;" parent="1" source="VHoZAzU2RzgKH1muCBWd-39" target="VHoZAzU2RzgKH1muCBWd-47" edge="1">
          <mxGeometry relative="1" as="geometry">
            <Array as="points">
              <mxPoint x="1050" y="1553" />
              <mxPoint x="1050" y="1673" />
            </Array>
          </mxGeometry>
        </mxCell>
        <mxCell id="VHoZAzU2RzgKH1muCBWd-39" value="FILTER?" style="whiteSpace=wrap;html=1;" parent="1" vertex="1">
          <mxGeometry x="1120" y="1523" width="120" height="60" as="geometry" />
        </mxCell>
        <mxCell id="VHoZAzU2RzgKH1muCBWd-40" value="" style="edgeStyle=orthogonalEdgeStyle;rounded=0;orthogonalLoop=1;jettySize=auto;html=1;entryX=0.5;entryY=1;entryDx=0;entryDy=0;" parent="1" source="VHoZAzU2RzgKH1muCBWd-42" target="VHoZAzU2RzgKH1muCBWd-29" edge="1">
          <mxGeometry relative="1" as="geometry">
            <mxPoint x="758" y="1513" as="targetPoint" />
            <Array as="points">
              <mxPoint x="757" y="1543" />
            </Array>
          </mxGeometry>
        </mxCell>
        <mxCell id="VHoZAzU2RzgKH1muCBWd-42" value="d/dt" style="whiteSpace=wrap;html=1;" parent="1" vertex="1">
          <mxGeometry x="840" y="1523" width="120" height="60" as="geometry" />
        </mxCell>
        <mxCell id="VHoZAzU2RzgKH1muCBWd-43" value="Q&lt;br&gt;Motor Angle&lt;br&gt;(noisy?)" style="text;html=1;strokeColor=none;fillColor=none;align=center;verticalAlign=middle;whiteSpace=wrap;rounded=0;" parent="1" vertex="1">
          <mxGeometry x="1190" y="1443" width="70" height="60" as="geometry" />
        </mxCell>
        <mxCell id="VHoZAzU2RzgKH1muCBWd-44" value="Q&lt;br&gt;Motor Angle" style="text;html=1;strokeColor=none;fillColor=none;align=center;verticalAlign=middle;whiteSpace=wrap;rounded=0;" parent="1" vertex="1">
          <mxGeometry x="1020" y="1503" width="40" height="50" as="geometry" />
        </mxCell>
        <mxCell id="VHoZAzU2RzgKH1muCBWd-45" value="Q&lt;br&gt;Motor Angle" style="text;html=1;strokeColor=none;fillColor=none;align=center;verticalAlign=middle;whiteSpace=wrap;rounded=0;" parent="1" vertex="1">
          <mxGeometry x="1000" y="1683" width="40" height="50" as="geometry" />
        </mxCell>
        <mxCell id="VHoZAzU2RzgKH1muCBWd-46" value="" style="edgeStyle=orthogonalEdgeStyle;rounded=0;orthogonalLoop=1;jettySize=auto;html=1;entryX=1;entryY=0.5;entryDx=0;entryDy=0;" parent="1" source="VHoZAzU2RzgKH1muCBWd-47" target="VHoZAzU2RzgKH1muCBWd-26" edge="1">
          <mxGeometry relative="1" as="geometry">
            <mxPoint x="460" y="1603" as="targetPoint" />
            <Array as="points">
              <mxPoint x="630" y="1663" />
              <mxPoint x="630" y="1663" />
            </Array>
          </mxGeometry>
        </mxCell>
        <mxCell id="VHoZAzU2RzgKH1muCBWd-47" value="Forward Kinematics" style="whiteSpace=wrap;html=1;" parent="1" vertex="1">
          <mxGeometry x="740" y="1633" width="120" height="60" as="geometry" />
        </mxCell>
        <mxCell id="VHoZAzU2RzgKH1muCBWd-48" value="X_motor" style="text;html=1;strokeColor=none;fillColor=none;align=center;verticalAlign=middle;whiteSpace=wrap;rounded=0;" parent="1" vertex="1">
          <mxGeometry x="640" y="1610" width="80" height="50" as="geometry" />
        </mxCell>
        <mxCell id="VHoZAzU2RzgKH1muCBWd-49" value="Error Q_dot" style="text;html=1;strokeColor=none;fillColor=none;align=center;verticalAlign=middle;whiteSpace=wrap;rounded=0;" parent="1" vertex="1">
          <mxGeometry x="797" y="1363" width="75" height="20" as="geometry" />
        </mxCell>
        <mxCell id="VHoZAzU2RzgKH1muCBWd-50" value="Trajectory Mode (Valid for Bishop &amp; Rook Only)" style="swimlane;fontStyle=1;align=center;verticalAlign=top;childLayout=stackLayout;horizontal=1;startSize=26;horizontalStack=0;resizeParent=1;resizeParentMax=0;resizeLast=0;collapsible=1;marginBottom=0;" parent="1" vertex="1">
          <mxGeometry x="490" y="1000" width="370" height="230" as="geometry" />
        </mxCell>
        <mxCell id="VHoZAzU2RzgKH1muCBWd-51" value="- Beginning Position&#xa;- allowed x_hat (away and to beginning position)&#xa;&#xa;- Traj mode ON/OFF&#xa;- curr x_hat (trajectory Chosen)&#xa;&#xa;- BOUNDARY CHECKING&#xa;&#xa;" style="text;strokeColor=none;fillColor=none;align=left;verticalAlign=top;spacingLeft=4;spacingRight=4;overflow=hidden;rotatable=0;points=[[0,0.5],[1,0.5]];portConstraint=eastwest;" parent="VHoZAzU2RzgKH1muCBWd-50" vertex="1">
          <mxGeometry y="26" width="370" height="114" as="geometry" />
        </mxCell>
        <mxCell id="VHoZAzU2RzgKH1muCBWd-52" value="" style="line;strokeWidth=1;fillColor=none;align=left;verticalAlign=middle;spacingTop=-1;spacingLeft=3;spacingRight=3;rotatable=0;labelPosition=right;points=[];portConstraint=eastwest;" parent="VHoZAzU2RzgKH1muCBWd-50" vertex="1">
          <mxGeometry y="140" width="370" height="8" as="geometry" />
        </mxCell>
        <mxCell id="VHoZAzU2RzgKH1muCBWd-53" value="- Check Bounds&#xa;- Compare applied Motor Trajectory &#xa;to Allowable trajectory" style="text;strokeColor=none;fillColor=none;align=left;verticalAlign=top;spacingLeft=4;spacingRight=4;overflow=hidden;rotatable=0;points=[[0,0.5],[1,0.5]];portConstraint=eastwest;" parent="VHoZAzU2RzgKH1muCBWd-50" vertex="1">
          <mxGeometry y="148" width="370" height="82" as="geometry" />
        </mxCell>
        <mxCell id="VHoZAzU2RzgKH1muCBWd-55" value="" style="edgeStyle=orthogonalEdgeStyle;rounded=0;orthogonalLoop=1;jettySize=auto;html=1;" parent="1" source="VHoZAzU2RzgKH1muCBWd-54" target="VHoZAzU2RzgKH1muCBWd-24" edge="1">
          <mxGeometry relative="1" as="geometry" />
        </mxCell>
        <mxCell id="VHoZAzU2RzgKH1muCBWd-54" value="d/dt" style="whiteSpace=wrap;html=1;" parent="1" vertex="1">
          <mxGeometry x="295" y="1717.5" width="120" height="60" as="geometry" />
        </mxCell>
        <mxCell id="6leYjax8hMQzbMTbFxdN-76" value="" style="edgeStyle=orthogonalEdgeStyle;rounded=0;orthogonalLoop=1;jettySize=auto;html=1;exitX=0.5;exitY=1;exitDx=0;exitDy=0;" edge="1" parent="1" source="6leYjax8hMQzbMTbFxdN-75" target="6leYjax8hMQzbMTbFxdN-77">
          <mxGeometry relative="1" as="geometry">
            <mxPoint x="425" y="2050" as="sourcePoint" />
            <mxPoint x="615" y="2130" as="targetPoint" />
            <Array as="points">
              <mxPoint x="373" y="2110" />
            </Array>
          </mxGeometry>
        </mxCell>
        <mxCell id="6leYjax8hMQzbMTbFxdN-80" value="" style="edgeStyle=orthogonalEdgeStyle;rounded=0;orthogonalLoop=1;jettySize=auto;html=1;entryX=0;entryY=0.5;entryDx=0;entryDy=0;" edge="1" parent="1" source="6leYjax8hMQzbMTbFxdN-5" target="6leYjax8hMQzbMTbFxdN-77">
          <mxGeometry relative="1" as="geometry">
            <mxPoint x="390" y="2180" as="targetPoint" />
          </mxGeometry>
        </mxCell>
        <mxCell id="6leYjax8hMQzbMTbFxdN-90" value="" style="edgeStyle=orthogonalEdgeStyle;rounded=0;orthogonalLoop=1;jettySize=auto;html=1;entryX=0;entryY=0.25;entryDx=0;entryDy=0;" edge="1" parent="1" source="6leYjax8hMQzbMTbFxdN-5" target="6leYjax8hMQzbMTbFxdN-66">
          <mxGeometry relative="1" as="geometry">
            <mxPoint x="175" y="2300" as="targetPoint" />
          </mxGeometry>
        </mxCell>
        <mxCell id="6leYjax8hMQzbMTbFxdN-5" value="Begin&lt;br&gt;Position" style="text;html=1;strokeColor=none;fillColor=none;align=center;verticalAlign=middle;whiteSpace=wrap;rounded=0;" vertex="1" parent="1">
          <mxGeometry x="150" y="2180" width="50" height="40" as="geometry" />
        </mxCell>
        <mxCell id="6leYjax8hMQzbMTbFxdN-6" value="" style="edgeStyle=orthogonalEdgeStyle;rounded=0;orthogonalLoop=1;jettySize=auto;html=1;entryX=1;entryY=0.5;entryDx=0;entryDy=0;exitX=0;exitY=0.5;exitDx=0;exitDy=0;" edge="1" parent="1" source="6leYjax8hMQzbMTbFxdN-7" target="6leYjax8hMQzbMTbFxdN-75">
          <mxGeometry relative="1" as="geometry">
            <mxPoint x="295" y="2010" as="targetPoint" />
            <Array as="points">
              <mxPoint x="440" y="2070" />
              <mxPoint x="440" y="2070" />
            </Array>
          </mxGeometry>
        </mxCell>
        <mxCell id="6leYjax8hMQzbMTbFxdN-7" value="Rook&lt;br&gt;Selected" style="text;html=1;strokeColor=none;fillColor=none;align=center;verticalAlign=middle;whiteSpace=wrap;rounded=0;" vertex="1" parent="1">
          <mxGeometry x="496" y="2050" width="60" height="40" as="geometry" />
        </mxCell>
        <mxCell id="6leYjax8hMQzbMTbFxdN-61" value="" style="edgeStyle=orthogonalEdgeStyle;rounded=0;orthogonalLoop=1;jettySize=auto;html=1;" edge="1" parent="1" source="6leYjax8hMQzbMTbFxdN-13" target="6leYjax8hMQzbMTbFxdN-36">
          <mxGeometry relative="1" as="geometry" />
        </mxCell>
        <mxCell id="6leYjax8hMQzbMTbFxdN-13" value="J&lt;sup&gt;T&lt;/sup&gt;" style="rounded=0;whiteSpace=wrap;html=1;" vertex="1" parent="1">
          <mxGeometry x="875" y="2357" width="90" height="60" as="geometry" />
        </mxCell>
        <mxCell id="6leYjax8hMQzbMTbFxdN-104" value="" style="edgeStyle=orthogonalEdgeStyle;rounded=0;orthogonalLoop=1;jettySize=auto;html=1;" edge="1" parent="1" source="6leYjax8hMQzbMTbFxdN-36" target="6leYjax8hMQzbMTbFxdN-41">
          <mxGeometry relative="1" as="geometry" />
        </mxCell>
        <mxCell id="6leYjax8hMQzbMTbFxdN-36" value="MOTORS" style="shape=process;whiteSpace=wrap;html=1;backgroundOutline=1;" vertex="1" parent="1">
          <mxGeometry x="860" y="2531.25" width="120" height="60" as="geometry" />
        </mxCell>
        <mxCell id="6leYjax8hMQzbMTbFxdN-63" value="" style="edgeStyle=orthogonalEdgeStyle;rounded=0;orthogonalLoop=1;jettySize=auto;html=1;exitX=0.02;exitY=0.389;exitDx=0;exitDy=0;entryX=1;entryY=0.5;entryDx=0;entryDy=0;exitPerimeter=0;" edge="1" parent="1" source="6leYjax8hMQzbMTbFxdN-41" target="6leYjax8hMQzbMTbFxdN-62">
          <mxGeometry relative="1" as="geometry">
            <Array as="points">
              <mxPoint x="692" y="2536" />
              <mxPoint x="610" y="2536" />
              <mxPoint x="610" y="2500" />
            </Array>
          </mxGeometry>
        </mxCell>
        <mxCell id="6leYjax8hMQzbMTbFxdN-106" value="" style="edgeStyle=orthogonalEdgeStyle;rounded=0;orthogonalLoop=1;jettySize=auto;html=1;entryX=1;entryY=0.5;entryDx=0;entryDy=0;exitX=0;exitY=0.75;exitDx=0;exitDy=0;" edge="1" parent="1" source="6leYjax8hMQzbMTbFxdN-41" target="6leYjax8hMQzbMTbFxdN-92">
          <mxGeometry relative="1" as="geometry">
            <mxPoint x="610" y="2561.25" as="targetPoint" />
          </mxGeometry>
        </mxCell>
        <mxCell id="6leYjax8hMQzbMTbFxdN-112" value="" style="edgeStyle=orthogonalEdgeStyle;rounded=0;orthogonalLoop=1;jettySize=auto;html=1;entryX=0;entryY=0.75;entryDx=0;entryDy=0;" edge="1" parent="1" source="6leYjax8hMQzbMTbFxdN-41" target="6leYjax8hMQzbMTbFxdN-66">
          <mxGeometry relative="1" as="geometry">
            <mxPoint x="740" y="2691.25" as="targetPoint" />
            <Array as="points">
              <mxPoint x="740" y="2720" />
              <mxPoint x="260" y="2720" />
              <mxPoint x="260" y="2352" />
            </Array>
          </mxGeometry>
        </mxCell>
        <mxCell id="6leYjax8hMQzbMTbFxdN-41" value="Forward &lt;br&gt;Kinematics" style="whiteSpace=wrap;html=1;" vertex="1" parent="1">
          <mxGeometry x="690" y="2511.25" width="100" height="100" as="geometry" />
        </mxCell>
        <mxCell id="6leYjax8hMQzbMTbFxdN-62" value="d/dt" style="whiteSpace=wrap;html=1;" vertex="1" parent="1">
          <mxGeometry x="450" y="2468.75" width="70" height="62.5" as="geometry" />
        </mxCell>
        <mxCell id="6leYjax8hMQzbMTbFxdN-65" value="" style="edgeStyle=orthogonalEdgeStyle;rounded=0;orthogonalLoop=1;jettySize=auto;html=1;" edge="1" parent="1" source="6leYjax8hMQzbMTbFxdN-64" target="6leYjax8hMQzbMTbFxdN-13">
          <mxGeometry relative="1" as="geometry" />
        </mxCell>
        <mxCell id="6leYjax8hMQzbMTbFxdN-64" value="Kp&lt;br&gt;Proportional &lt;br&gt;Gain" style="rounded=0;whiteSpace=wrap;html=1;" vertex="1" parent="1">
          <mxGeometry x="690" y="2352" width="90" height="70" as="geometry" />
        </mxCell>
        <mxCell id="6leYjax8hMQzbMTbFxdN-113" value="" style="edgeStyle=orthogonalEdgeStyle;rounded=0;orthogonalLoop=1;jettySize=auto;html=1;" edge="1" parent="1" source="6leYjax8hMQzbMTbFxdN-66" target="6leYjax8hMQzbMTbFxdN-77">
          <mxGeometry relative="1" as="geometry" />
        </mxCell>
        <mxCell id="6leYjax8hMQzbMTbFxdN-66" value="Compare &lt;br&gt;Initial&lt;br&gt;Position" style="rounded=0;whiteSpace=wrap;html=1;" vertex="1" parent="1">
          <mxGeometry x="329" y="2300" width="85" height="70" as="geometry" />
        </mxCell>
        <mxCell id="6leYjax8hMQzbMTbFxdN-74" value="" style="edgeStyle=orthogonalEdgeStyle;rounded=0;orthogonalLoop=1;jettySize=auto;html=1;exitX=0.5;exitY=0;exitDx=0;exitDy=0;" edge="1" parent="1" source="6leYjax8hMQzbMTbFxdN-62" target="6leYjax8hMQzbMTbFxdN-72">
          <mxGeometry relative="1" as="geometry">
            <mxPoint x="647" y="2590" as="sourcePoint" />
            <mxPoint x="575" y="2590" as="targetPoint" />
          </mxGeometry>
        </mxCell>
        <mxCell id="6leYjax8hMQzbMTbFxdN-81" value="" style="edgeStyle=orthogonalEdgeStyle;rounded=0;orthogonalLoop=1;jettySize=auto;html=1;" edge="1" parent="1" source="6leYjax8hMQzbMTbFxdN-72" target="6leYjax8hMQzbMTbFxdN-64">
          <mxGeometry relative="1" as="geometry" />
        </mxCell>
        <mxCell id="6leYjax8hMQzbMTbFxdN-72" value="+ Sum&lt;font style=&quot;font-size: 12px&quot;&gt;&lt;br&gt;&lt;font&gt;-&lt;/font&gt;&lt;/font&gt;" style="ellipse;whiteSpace=wrap;html=1;aspect=fixed;" vertex="1" parent="1">
          <mxGeometry x="458" y="2360" width="54" height="54" as="geometry" />
        </mxCell>
        <mxCell id="6leYjax8hMQzbMTbFxdN-75" value="Rook&lt;br&gt;Behaviour" style="shape=hexagon;perimeter=hexagonPerimeter2;whiteSpace=wrap;html=1;fixedSize=1;rounded=0;" vertex="1" parent="1">
          <mxGeometry x="315" y="2030" width="120" height="80" as="geometry" />
        </mxCell>
        <mxCell id="6leYjax8hMQzbMTbFxdN-85" value="" style="edgeStyle=orthogonalEdgeStyle;rounded=0;orthogonalLoop=1;jettySize=auto;html=1;" edge="1" parent="1" source="6leYjax8hMQzbMTbFxdN-77" target="6leYjax8hMQzbMTbFxdN-84">
          <mxGeometry relative="1" as="geometry" />
        </mxCell>
        <mxCell id="6leYjax8hMQzbMTbFxdN-77" value="Compare Axis Distance" style="rounded=0;whiteSpace=wrap;html=1;" vertex="1" parent="1">
          <mxGeometry x="310" y="2160" width="125" height="80" as="geometry" />
        </mxCell>
        <mxCell id="6leYjax8hMQzbMTbFxdN-86" value="" style="edgeStyle=orthogonalEdgeStyle;rounded=0;orthogonalLoop=1;jettySize=auto;html=1;" edge="1" parent="1" source="6leYjax8hMQzbMTbFxdN-84" target="6leYjax8hMQzbMTbFxdN-64">
          <mxGeometry relative="1" as="geometry" />
        </mxCell>
        <mxCell id="6leYjax8hMQzbMTbFxdN-84" value="Set &lt;br&gt;Proportional&lt;br&gt;Gains" style="rounded=0;whiteSpace=wrap;html=1;" vertex="1" parent="1">
          <mxGeometry x="685" y="2165" width="100" height="70" as="geometry" />
        </mxCell>
        <mxCell id="6leYjax8hMQzbMTbFxdN-88" value="" style="edgeStyle=orthogonalEdgeStyle;rounded=0;orthogonalLoop=1;jettySize=auto;html=1;exitX=0;exitY=0.5;exitDx=0;exitDy=0;" edge="1" parent="1" source="6leYjax8hMQzbMTbFxdN-87" target="6leYjax8hMQzbMTbFxdN-72">
          <mxGeometry relative="1" as="geometry">
            <mxPoint x="530" y="2280" as="sourcePoint" />
          </mxGeometry>
        </mxCell>
        <mxCell id="6leYjax8hMQzbMTbFxdN-87" value="Reference&lt;br&gt;Velocity" style="text;html=1;strokeColor=none;fillColor=none;align=center;verticalAlign=middle;whiteSpace=wrap;rounded=0;" vertex="1" parent="1">
          <mxGeometry x="540" y="2250" width="80" height="60" as="geometry" />
        </mxCell>
        <mxCell id="6leYjax8hMQzbMTbFxdN-107" value="" style="edgeStyle=orthogonalEdgeStyle;rounded=0;orthogonalLoop=1;jettySize=auto;html=1;" edge="1" parent="1" source="6leYjax8hMQzbMTbFxdN-92" target="6leYjax8hMQzbMTbFxdN-62">
          <mxGeometry relative="1" as="geometry" />
        </mxCell>
        <mxCell id="6leYjax8hMQzbMTbFxdN-92" value="Postion at&lt;br&gt;Previous &lt;br&gt;Time step" style="rounded=1;whiteSpace=wrap;html=1;" vertex="1" parent="1">
          <mxGeometry x="445" y="2591.25" width="80" height="60" as="geometry" />
        </mxCell>
        <mxCell id="6leYjax8hMQzbMTbFxdN-110" value="" style="edgeStyle=orthogonalEdgeStyle;rounded=0;orthogonalLoop=1;jettySize=auto;html=1;entryX=0;entryY=0.5;entryDx=0;entryDy=0;exitX=0.5;exitY=0;exitDx=0;exitDy=0;exitPerimeter=0;" edge="1" parent="1" source="6leYjax8hMQzbMTbFxdN-108" target="6leYjax8hMQzbMTbFxdN-62">
          <mxGeometry relative="1" as="geometry">
            <mxPoint x="360" y="2500" as="targetPoint" />
          </mxGeometry>
        </mxCell>
        <mxCell id="6leYjax8hMQzbMTbFxdN-108" value="Loop&lt;br&gt;Time &lt;br&gt;Difference" style="text;html=1;align=center;verticalAlign=middle;resizable=0;points=[];autosize=1;strokeColor=none;" vertex="1" parent="1">
          <mxGeometry x="320" y="2591.25" width="70" height="50" as="geometry" />
        </mxCell>
      </root>
    </mxGraphModel>
  </diagram>
</mxfile>
